# xmcd
#
# Track frame offsets:
#	150
#	12708
#	28229
#	42242
#	55307
#	67484
#	81570
#	97404
#	112638
#	125019
#	138599
#	152535
#	166708
#	181929
#
# Disc length: 2606 seconds
#
# Revision: 0
# Processed by: cddbd v1.5.1PL2 Copyright (c) Steve Scherf et al.
# Submitted via: audiograbber 1.83.01
#
DISCID=ca0a2c0e
DTITLE=Dagmar - Mit Herz und Gefühl
DYEAR=1997
DGENRE=Country
TTITLE0=Dagmar - Wenn man geht, geht man niemals für immer
TTITLE1=Dagmar - Bleib doch
TTITLE2=Dagmar - Wissen, wohin man gehört
TTITLE3=Dagmar - Brave Jungen kommen in den Himmel
TTITLE4=Dagmar - Heimatlos
TTITLE5=Dagmar - Dafür bin ich
TTITLE6=Dagmar - Wir Zwei
TTITLE7=Dagmar - Nur ein bisschen Zärtlichkeit
TTITLE8=Dagmar - Tränen im Kaffee
TTITLE9=Dagmar - Ein Sonntag mit dir
TTITLE10=Dagmar - Es ist nie zu spät
TTITLE11=Dagmar - Cowboys
TTITLE12=Dagmar - Highway Heaven
TTITLE13=Dagmar - Paradise Canyon
EXTD=
EXTT0=
EXTT1=
EXTT2=
EXTT3=
EXTT4=
EXTT5=
EXTT6=
EXTT7=
EXTT8=
EXTT9=
EXTT10=
EXTT11=
EXTT12=
EXTT13=
PLAYORDER=
